<?xml version="1.0" encoding="UTF-8" standalone="no"?>
<!-- Created with Inkscape (http://www.inkscape.org/) -->

<svg
   xmlns:dc="http://purl.org/dc/elements/1.1/"
   xmlns:cc="http://creativecommons.org/ns#"
   xmlns:rdf="http://www.w3.org/1999/02/22-rdf-syntax-ns#"
   xmlns:svg="http://www.w3.org/2000/svg"
   xmlns="http://www.w3.org/2000/svg"
   xmlns:sodipodi="http://sodipodi.sourceforge.net/DTD/sodipodi-0.dtd"
   xmlns:inkscape="http://www.inkscape.org/namespaces/inkscape"
   width="297mm"
   height="210mm"
   viewBox="0 0 1052.3622 744.09448"
   id="svg2"
   version="1.1"
   inkscape:version="0.91 r13725"
   sodipodi:docname="ice-world-map.svg">
  <defs
     id="defs4" />
  <sodipodi:namedview
     id="base"
     pagecolor="#ffffff"
     bordercolor="#666666"
     borderopacity="1.0"
     inkscape:pageopacity="0.0"
     inkscape:pageshadow="2"
     inkscape:zoom="1.4"
     inkscape:cx="542.91422"
     inkscape:cy="501.19943"
     inkscape:document-units="px"
     inkscape:current-layer="layer4"
     showgrid="false"
     inkscape:snap-text-baseline="true"
     inkscape:window-width="1920"
     inkscape:window-height="1027"
     inkscape:window-x="1912"
     inkscape:window-y="-8"
     inkscape:window-maximized="1" />
  <metadata
     id="metadata7">
    <rdf:RDF>
      <cc:Work
         rdf:about="">
        <dc:format>image/svg+xml</dc:format>
        <dc:type
           rdf:resource="http://purl.org/dc/dcmitype/StillImage" />
        <dc:title></dc:title>
      </cc:Work>
    </rdf:RDF>
  </metadata>
  <g
     inkscape:groupmode="layer"
     id="layer2"
     inkscape:label="Sea"
     sodipodi:insensitive="true">
    <rect
       style="fill:#006281;fill-opacity:1;stroke:#000000;stroke-width:2.66020274;stroke-miterlimit:4;stroke-dasharray:none;stroke-opacity:1"
       id="rect4141"
       width="1051.9086"
       height="745.8324"
       x="3.870712"
       y="-1.5679955" />
  </g>
  <g
     inkscape:groupmode="layer"
     id="layer3"
     inkscape:label="Ice Sheets">
    <path
       style="fill:#ffffff;fill-opacity:1;fill-rule:evenodd;stroke:#000000;stroke-width:1px;stroke-linecap:butt;stroke-linejoin:miter;stroke-opacity:1"
       d="m 438.01741,152.91699 -28.57142,-8.57143 -35.19312,9.56446 -40.92579,-9.61592 -12.36446,-34.98193 -54.77503,8.1489 10.474,-43.177233 17.8707,0.439359 13.35377,-7.681326 -17.83653,-7.233565 -33.42018,-19.487957 79.87644,-0.04769 41.97255,-17.73395 61.1713,-12.138489 46.93098,12.189415 -34.73021,24.879112 13.3214,20.0163 11.01672,25.999329 -29.59969,15.861175 16.42857,27.14287 -0.71428,15.71429 z"
       id="path4147-6"
       inkscape:connector-curvature="0"
       sodipodi:nodetypes="cccccccccccccccccccccc" />
    <path
       style="fill:#ffffff;fill-opacity:1;fill-rule:evenodd;stroke:#000000;stroke-width:1px;stroke-linecap:butt;stroke-linejoin:miter;stroke-opacity:1"
       d="m 558.22556,185.24187 -28.57142,-8.57143 -0.71429,-32.85714 37.85714,-2.14286 16.42857,27.14286 -0.71428,15.71429 z"
       id="path4147-3"
       inkscape:connector-curvature="0" />
    <path
       style="fill:#ffffff;fill-opacity:1;fill-rule:evenodd;stroke:#000000;stroke-width:0.8;stroke-linecap:butt;stroke-linejoin:miter;stroke-opacity:1;stroke-miterlimit:4;stroke-dasharray:none"
       d="m 684.75184,151.09614 -39.54712,-1.49974 -32.81908,-21.65192 -24.99973,-29.471303 4.08147,-34.697971 50.42382,-28.619339 42.40101,4.756797 -19.00442,30.98123 -25.62593,37.372126 44.64961,9.76537 -3.2465,-37.222253 25.39674,-47.400581 21.03331,26.627629 -8.02431,32.273497 28.60158,14.412448 -22.79684,6.59471 -2.35255,13.64476 23.34025,22.20525 -35.50154,-11.95512 z"
       id="path4147-30"
       inkscape:connector-curvature="0"
       inkscape:transform-center-x="17.16732"
       inkscape:transform-center-y="22.243526"
       sodipodi:nodetypes="cccccccccccccccccccc" />
    <path
       style="fill:#ffffff;fill-opacity:1;fill-rule:evenodd;stroke:#000000;stroke-width:1px;stroke-linecap:butt;stroke-linejoin:miter;stroke-opacity:1"
       d="m 692.57585,231.70889 -28.57142,-8.57143 -0.71429,-32.85714 37.85714,-2.14286 16.42857,27.14286 -0.71428,15.71429 z"
       id="path4147-1"
       inkscape:connector-curvature="0" />
    <path
       style="fill:#ffffff;fill-opacity:1;fill-rule:evenodd;stroke:#000000;stroke-width:1px;stroke-linecap:butt;stroke-linejoin:miter;stroke-opacity:1"
       d="m 868.34239,187.26218 -28.57142,-8.57143 -0.71429,-32.85714 37.85714,-2.14286 16.42857,27.14286 -0.71428,15.71429 z"
       id="path4147-69"
       inkscape:connector-curvature="0" />
    <path
       style="fill:#ffffff;fill-opacity:1;fill-rule:evenodd;stroke:#000000;stroke-width:1px;stroke-linecap:butt;stroke-linejoin:miter;stroke-opacity:1"
       d="m 988.55055,202.41447 -28.57142,-8.57143 -0.71429,-32.85714 37.85714,-2.14286 16.42862,27.14286 -0.7143,15.71429 z"
       id="path4147-8"
       inkscape:connector-curvature="0" />
    <path
       style="fill:#ffffff;fill-opacity:1;fill-rule:evenodd;stroke:#000000;stroke-width:1px;stroke-linecap:butt;stroke-linejoin:miter;stroke-opacity:1"
       d="m 941.07338,99.3789 -28.57142,-8.57143 -0.71429,-32.85714 37.85714,-2.14286 16.42857,27.14286 -0.71428,15.71429 z"
       id="path4147-89"
       inkscape:connector-curvature="0" />
    <path
       style="fill:#ffffff;fill-opacity:1;fill-rule:evenodd;stroke:#000000;stroke-width:1.28448641px;stroke-linecap:butt;stroke-linejoin:miter;stroke-opacity:1"
       d="M 181.17269,108.54431 145.49628,97.21867 158.28592,72.423077 144.60436,53.803702 167.82001,39.640623 148.90593,11.338049 l 36.6483,1.353191 23.34964,24.26628 18.08249,21.44115 -14.5968,28.438163 -0.8919,20.763687 z"
       id="path4147-0"
       inkscape:connector-curvature="0"
       sodipodi:nodetypes="cccccccccccc" />
    <path
       style="fill:#ffffff;fill-opacity:1;fill-rule:evenodd;stroke:#000000;stroke-width:1px;stroke-linecap:butt;stroke-linejoin:miter;stroke-opacity:1"
       d="m 78.4031,243.83072 -28.57142,-8.57143 -0.71429,-32.85714 37.857139,-2.14286 16.428571,27.14286 -0.71428,15.71429 z"
       id="path4147-4"
       inkscape:connector-curvature="0" />
    <path
       style="fill:#ffffff;fill-opacity:1;fill-rule:evenodd;stroke:#000000;stroke-width:1px;stroke-linecap:butt;stroke-linejoin:miter;stroke-opacity:1"
       d="m 256.69503,196.35355 -28.57142,-8.57143 -0.71429,-32.85714 30.281,22.60588 24.00471,2.39412 -0.71428,15.71429 z"
       id="path4147-12"
       inkscape:connector-curvature="0"
       sodipodi:nodetypes="ccccccc" />
    <path
       style="fill:#ffffff;fill-opacity:1;fill-rule:evenodd;stroke:#000000;stroke-width:1px;stroke-linecap:butt;stroke-linejoin:miter;stroke-opacity:1"
       d="m 241.54132,147.54866 -18.4699,-6.04605 3.8314,-9.62363 16.13886,-4.16316 17.43872,4.41442 -5.25997,14.70414 z"
       id="path4147-12-6"
       inkscape:connector-curvature="0"
       sodipodi:nodetypes="ccccccc" />
    <path
       style="fill:#ffffff;fill-opacity:1;fill-rule:evenodd;stroke:#000000;stroke-width:0.6644665px;stroke-linecap:butt;stroke-linejoin:miter;stroke-opacity:1"
       d="m 177.47996,143.24923 -11.46199,-4.30153 2.37768,-6.84683 10.0154,-2.96192 10.82207,3.14068 -3.26422,10.46142 z"
       id="path4147-12-6-7"
       inkscape:connector-curvature="0"
       sodipodi:nodetypes="ccccccc" />
    <path
       style="fill:#ffffff;fill-opacity:1;fill-rule:evenodd;stroke:#000000;stroke-width:0.67900169px;stroke-linecap:butt;stroke-linejoin:miter;stroke-opacity:1"
       d="m 184.6019,190.85816 0.44186,-5.93931 -3.30759,-7.48768 6.63907,-1.21667 7.75309,8.25713 3.42482,12.20126 -9.94371,2.21934 z"
       id="path4147-12-6-78"
       inkscape:connector-curvature="0"
       sodipodi:nodetypes="cccccccc" />
    <path
       style="fill:#ffffff;fill-opacity:1;fill-rule:evenodd;stroke:#000000;stroke-width:0.63772786px;stroke-linecap:butt;stroke-linejoin:miter;stroke-opacity:1"
       d="m 139.8264,161.22019 2.93377,-5.19588 -6.97639,-7.93905 5.49236,-2.36695 7.57367,7.05567 4.37055,11.79587 -5.65294,-0.0913 -2.52571,4.03932 z"
       id="path4147-12-6-73"
       inkscape:connector-curvature="0"
       sodipodi:nodetypes="ccccccccc" />
    <path
       style="fill:#ffffff;fill-opacity:1;fill-rule:evenodd;stroke:#000000;stroke-width:0.70093447px;stroke-linecap:butt;stroke-linejoin:miter;stroke-opacity:1"
       d="m 141.01637,223.22244 -14.25064,-3.84996 2.95616,-6.12808 12.4521,-2.65099 13.45501,2.81099 -4.05838,9.36321 z"
       id="path4147-12-6-9"
       inkscape:connector-curvature="0"
       sodipodi:nodetypes="ccccccc" />
    <path
       style="fill:#ffffff;fill-opacity:1;fill-rule:evenodd;stroke:#000000;stroke-width:1.25164807px;stroke-linecap:butt;stroke-linejoin:miter;stroke-opacity:1"
       d="m 227.6592,233.087 5.42801,-20.71117 6.84552,-1.81991 8.49583,5.63354 4.84103,9.94177 6.37888,8.44204 -3.13797,12.23957 -10.12244,-2.51306 -10.95181,3.205 -1.41548,-7.97314 z"
       id="path4147-12-6-97"
       inkscape:connector-curvature="0"
       sodipodi:nodetypes="ccccccccccc" />
    <path
       style="fill:#ffffff;fill-opacity:1;fill-rule:evenodd;stroke:#000000;stroke-width:0.60088009px;stroke-linecap:butt;stroke-linejoin:miter;stroke-opacity:1"
       d="m 136.61091,38.284998 -9.56676,-4.214513 1.98453,-6.708333 8.35936,-2.902009 9.03264,3.077155 -2.72448,10.249797 z"
       id="path4147-12-6-7-1"
       inkscape:connector-curvature="0"
       sodipodi:nodetypes="ccccccc" />
    <path
       style="fill:#ffffff;fill-opacity:1;fill-rule:evenodd;stroke:#000000;stroke-width:0.60088009px;stroke-linecap:butt;stroke-linejoin:miter;stroke-opacity:1"
       d="m 113.60426,57.628753 -10.44475,0.438319 -1.17852,-6.895737 6.22163,-6.292203 9.46366,-1.223378 2.07684,10.400378 z"
       id="path4147-12-6-7-3"
       inkscape:connector-curvature="0"
       sodipodi:nodetypes="ccccccc" />
    <path
       style="fill:#ffffff;fill-opacity:1;fill-rule:evenodd;stroke:#000000;stroke-width:0.71918243px;stroke-linecap:butt;stroke-linejoin:miter;stroke-opacity:1"
       d="m 86.458127,24.085176 6.891696,-10.900436 7.120607,3.81602 1.40298,10.874913 -5.489758,10.476832 -10.948532,-5.452153 z"
       id="path4147-12-6-7-30"
       inkscape:connector-curvature="0"
       sodipodi:nodetypes="ccccccc" />
    <path
       style="fill:#ffffff;fill-opacity:1;fill-rule:evenodd;stroke:#000000;stroke-width:0.49347213px;stroke-linecap:butt;stroke-linejoin:miter;stroke-opacity:1"
       d="m 46.618951,72.261243 -8.925617,-3.046655 1.851532,-4.849426 7.799137,-2.097851 8.427298,2.224463 -2.541891,7.409537 z"
       id="path4147-12-6-7-6"
       inkscape:connector-curvature="0"
       sodipodi:nodetypes="ccccccc" />
    <path
       style="fill:#ffffff;fill-opacity:1;fill-rule:evenodd;stroke:#000000;stroke-width:1px;stroke-linecap:butt;stroke-linejoin:miter;stroke-opacity:1"
       d="m 324.12515,220.698 -28.57142,-8.57143 11.91262,-27.80638 25.23023,-7.19362 -1.2491,18.55656 -10.31073,8.64323 z"
       id="path4143"
       inkscape:connector-curvature="0"
       sodipodi:nodetypes="ccccccc" />
    <path
       inkscape:connector-curvature="0"
       id="path4145"
       d="m 408.47289,223.22339 -8.84093,11.71702 -12.65942,-0.59048 -6.3397,-16.86456 5.62541,-15.99258 13.68743,-3.8624 24.16971,1.71954 12.93927,12.68183 3.4893,14.46103 -0.71428,15.71429 -19.60023,-5.69876 z"
       style="fill:#ffffff;fill-opacity:1;fill-rule:evenodd;stroke:#000000;stroke-width:1px;stroke-linecap:butt;stroke-linejoin:miter;stroke-opacity:1"
       sodipodi:nodetypes="cccccccccccc" />
    <path
       style="fill:#ffffff;fill-opacity:1;fill-rule:evenodd;stroke:#000000;stroke-width:1px;stroke-linecap:butt;stroke-linejoin:miter;stroke-opacity:1"
       d="m 298.87135,171.20053 -28.57142,-8.57143 -0.71429,-32.85714 37.85714,-2.14286 16.42857,27.14286 -0.71428,15.71429 z"
       id="path4147"
       inkscape:connector-curvature="0" />
  </g>
  <g
     inkscape:label="Land"
     inkscape:groupmode="layer"
     id="layer1"
     transform="translate(0,-308.26772)"
     sodipodi:insensitive="true">
    <path
       style="fill:#7edbff;fill-opacity:1;fill-rule:evenodd;stroke:#000000;stroke-width:0.99376935px;stroke-linecap:butt;stroke-linejoin:miter;stroke-opacity:1"
       d="m 556.26616,655.27871 18.83585,3.27813 13.80497,2.40258 34.76958,-12.0715 9.22458,-33.3741 80.1829,7.10087 c 0,0 9.30826,-25.3525 12.85617,-30.32312 3.54793,-4.97061 85.14998,-22.7228 99.34165,-24.14297 6.64032,-0.66451 57.69496,32.65775 103.69697,27.45729 21.84868,-2.46996 46.58882,28.42672 46.58882,28.42672 22.56861,15.59939 17.92551,53.51253 17.92551,53.51253 l 16.77494,-37.53076 0.9627,-39.65461 42.069,16.63583 1.0909,437.3683 L 1.419702,1052.5023 3.7987784,749.33921 42.52794,714.21598 l 42.574991,-2.84035 41.155819,-68.1684 56.76665,-9.94123 66.70082,25.56315 72.37748,-35.50437 42.575,21.30263 -4.2575,42.60524 22.70666,21.30263 -39.73665,21.30262 -18.44916,26.98332 11.35332,35.50437 -2.83832,31.24385 43.99415,-11.36141 21.28749,-19.88244 -18.44916,-28.40349 34.06,-21.30263 7.09582,-28.40349 -15.61082,-18.46228 18.44916,-19.88244 -12.77251,-46.86578 26.96417,-8.52105 21.28749,-17.04211 29.8025,-7.10086 21.28749,-26.98332 19.86833,5.6807 8.515,14.20174 32.64083,2.84034 28.38332,-26.98331 31.22167,7.10087 -4.25751,19.88244 -18.44916,17.04211 -21.2875,11.3614 8.51501,17.0421 -29.8025,1.42017 -18.44916,-7.10087 -14.19166,12.78158 2.83833,22.7228 -36.89833,-5.68071 8.515,25.56315 43.99416,5.68069 -9.93416,-8.52104 0,-12.78158 17.02998,-1.42017 -2.83832,-15.62192"
       id="path4138"
       inkscape:connector-curvature="0"
       sodipodi:nodetypes="ccccccsssscccccccccccccccccccccccccccccccccccccccccccccccccccc" />
  </g>
  <g
     inkscape:groupmode="layer"
     id="layer4"
     inkscape:label="Labels">
    <text
       xml:space="preserve"
       style="font-style:normal;font-weight:normal;font-size:19.36971855px;line-height:125%;font-family:sans-serif;letter-spacing:0px;word-spacing:0px;fill:#000000;fill-opacity:1;stroke:none;stroke-width:1px;stroke-linecap:butt;stroke-linejoin:miter;stroke-opacity:1"
       x="448.19421"
       y="200.91635"
       id="text4322"
       sodipodi:linespacing="125%"
       transform="scale(0.98346616,1.0168118)"><tspan
         sodipodi:role="line"
         id="tspan4324"
         x="448.19421"
         y="200.91635">Ice Sheets</tspan></text>
    <circle
       style="fill:#000000;fill-opacity:1;stroke:#000000;stroke-width:3;stroke-miterlimit:4;stroke-dasharray:none;stroke-opacity:1"
       id="path4316"
       cx="615.7149"
       cy="276.86258"
       r="2.2728431" />
    <text
       xml:space="preserve"
       style="font-style:normal;font-weight:normal;font-size:8.65551186px;line-height:125%;font-family:sans-serif;letter-spacing:0px;word-spacing:0px;fill:#000000;fill-opacity:1;stroke:none;stroke-width:1px;stroke-linecap:butt;stroke-linejoin:miter;stroke-opacity:1"
       x="640.03766"
       y="267.18427"
       id="text4318"
       sodipodi:linespacing="125%"
       transform="scale(0.9191691,1.0879391)"><tspan
         sodipodi:role="line"
         id="tspan4320"
         x="640.03766"
         y="267.18427">Barrow</tspan></text>
  </g>
</svg>
